<svg xmlns="http://www.w3.org/2000/svg" xmlns:xlink="http://www.w3.org/1999/xlink" viewBox="0 0 200 200"><defs><path id="d" d="M0 340.157h340.157V0H0Z"/><path id="i" d="M0 0h-1.301v3.562l.093.093h1.115L0 3.562Z" clip-path="url(#a)" style="display:inline;fill:#9b9b9a;fill-opacity:1;fill-rule:nonzero;stroke:none"/></defs><defs><clipPath id="e" clipPathUnits="userSpaceOnUse"><use xlink:href="#d" transform="translate(-242.301 -175.319)"/></clipPath><clipPath id="f" clipPathUnits="userSpaceOnUse"><use xlink:href="#d" transform="translate(-217.957 -194.521)"/></clipPath><clipPath id="g" clipPathUnits="userSpaceOnUse"><use xlink:href="#d" transform="translate(-236.725 -178.54)"/></clipPath><clipPath id="h" clipPathUnits="userSpaceOnUse"><use xlink:href="#d" transform="translate(-242.301 -175.319)"/></clipPath><clipPath id="a" clipPathUnits="userSpaceOnUse"><use xlink:href="#d" transform="translate(-220.25 -192.787)"/></clipPath><clipPath id="j" clipPathUnits="userSpaceOnUse"><use xlink:href="#d" transform="translate(-226.691 -192.787)"/></clipPath><clipPath id="k" clipPathUnits="userSpaceOnUse"><use xlink:href="#d" transform="translate(-233.072 -192.787)"/></clipPath><clipPath id="l" clipPathUnits="userSpaceOnUse"><use xlink:href="#d" transform="translate(-239.514 -192.787)"/></clipPath><clipPath id="b" clipPathUnits="userSpaceOnUse"><use xlink:href="#d" transform="translate(-225.824 -186.407)"/></clipPath><clipPath id="c" clipPathUnits="userSpaceOnUse"><use xlink:href="#d" transform="translate(-226.568 -183.124)"/></clipPath><clipPath id="m" clipPathUnits="userSpaceOnUse"><use xlink:href="#d" transform="translate(-234.249 -176.93)"/></clipPath></defs><g style="display:inline" transform="matrix(.75 0 0 .75 25 25)"><path d="m4.408 55.991 182.634 3.334 1.853 99.838-29.637 2.82-4.337 33.651-140.244.172-10.599-11.005z" style="display:inline;fill:#fff;stroke-width:3.40051"/><path d="m55.206 79.53 107.415.37 4.445 61.148-27.784-.718v30.135H55.206Z" style="display:inline;fill:#c6c4c5;stroke-width:4.45863"/><path d="m26.13 76.424 83.562.262-27.047 28.75-.851-24.69-27.898 27.374-.262 64.702-26.719-.262Z" style="display:inline;fill:#c1181b;stroke-width:1.91785"/><path d="M0 0h-3.097c.02-.061-.062-.134-.062-.155v-2.942zm-9.044 2.478h-1.363V-.867h3.345V.991C-7.567.899-8.381-.038-8.876.369a1.526 1.526 0 0 0-.168.281Zm-2.354 0h-3.345V-.867h3.345zm-4.336 0h-3.345V-.867h3.345zm-4.336 0h-3.345V-.867h3.345zm12.017-.867 1.549.898c.024.1-.085.126-.144.166-.427.293-.959.52-1.405.794zm5.266 1.858v2.602l-1.549-2.602Zm-4.956 3.345h-2.664V3.469h1.363v.96c0 .132.976 1.687 1.126 1.971.037.07.214.379.175.414m-3.655-3.345v3.252l-.093.093h-3.252V3.469Zm-4.336 3.345h-3.345V3.469h3.345zm-4.336 0h-3.252l-.093-.093V3.469h3.345zm0 .991v2.54l-2.54-2.54zm8.672 0v2.602l-2.601-2.602zm-4.336 0v2.602l-2.601-2.602zm9.663 3.283V9.663l.806 1.393zm-.991 0h-3.345V7.805h3.252l.093.093zm-5.079 0h-2.602V8.486Zm-4.336 0h-2.602V8.486Zm-4.336 0h-2.602v-2.54zm17.344 3.035h-23.415V-2.385c0-.697 1.119-1.593 1.829-1.517l20.319-.003.586.064v3.748c0 .446.57 1.084 1.022 1.084H.681l.032 11.15-2.494-4.258-.048-5.156c-.087-.096-.172-.222-.309-.248-.755-.144-1.913.114-2.713-.013-.31-.412-.766-.582-1.189-.855-.116-.186.015-2.361-.031-2.818-.026-.253-.08-.485-.325-.604l-17.424-.05c-.254-.016-.455.152-.558.371l.029 13.295c.067.197.267.285.467.277l19.144-.003.147.1zM-5.576 3.221l7.405 12.944C2.124 17.272.244 18.278-.46 17.34L-7.863 4.552Zm-18.768 15.982c-.998.049-1.995-.133-2.408-1.154a3.517 3.517 0 0 1-.132-.364v-2.571h23.942c.989 1.146 1.312 3.304 3.004 3.594-.435.511-1.235.491-1.858.495v-1.766c0-.391-.501-.914-.897-.961-.307-.037-1.377-.042-1.66.015-.214.044-.726.5-.726.698v1.921l-.093.093h-2.974l-.093-.093v-1.859c0-.22-.456-.664-.692-.732-.294-.085-1.664-.081-1.943.017-.254.089-.648.518-.648.777v1.89h-3.097v-1.766c0-.391-.501-.914-.897-.961-.306-.037-1.376-.042-1.659.015-.215.044-.727.5-.727.698v1.921l-.093.093h-2.973l-.093-.093v-1.859c0-.22-.457-.664-.692-.732-.301-.087-1.654-.08-1.944.017-.238.08-.647.541-.647.777zm21.557-1.735v3.562l-.093.093h-1.115l-.093-.093v-3.562zm-6.443 0v3.562l-.093.093h-1.115l-.092-.093v-3.562zm-6.38 0v3.562l-.093.093h-1.115l-.093-.093v-3.562zm-6.442 0v3.562l-.093.093h-1.115l-.093-.093v-3.562zm.991 2.726h3.159v1.146c0 .206.479.604.683.679.427.158 1.53.148 1.953-.025.296-.121.647-.591.647-.902v-.898h3.097v1.022c0 .156.293.575.438.677.423.294 1.739.303 2.207.109.216-.089.638-.502.638-.724v-1.084h3.16v1.146c0 .104.329.48.437.553.47.318 1.784.306 2.282.059.62-.307.583-1.168.563-1.759 1.304.061 2.285-.23 3.061-1.306.114-.156.162-.384.284-.521.221-.249.611-.344.893-.717 1.083-1.428-.208-2.512-.708-3.803l.004-12.455c-.06-.509-.16-.99-.424-1.434-.404-.678-3.36-3.597-4.071-4.168-.612-.491-1.202-.64-1.978-.686l-20.32.004c-1.525.111-2.657 1.08-2.821 2.63l-.001 19.765c.132 1.874 1.762 2.846 3.534 2.691-.064 1.04.003 1.828 1.206 1.923.519.041 1.339.062 1.739-.309.087-.081.338-.435.338-.529z" clip-path="url(#e)" style="display:inline;fill:#1d1d1b;fill-opacity:1;fill-rule:nonzero;stroke:none" transform="matrix(6.50622 0 0 -7.39793 181.38 163.772)"/><path d="M0 0v-1.889c0-.237.409-.698.647-.778.29-.097 1.643-.104 1.944-.017.235.068.692.513.692.733v1.858L3.376 0h2.973l.093-.093v-1.92c0-.199.512-.655.727-.698.283-.058 1.353-.053 1.659-.016.396.048.897.571.897.962V0h3.097v-1.889c0-.26.394-.689.648-.778.279-.098 1.649-.102 1.943-.017.236.068.692.513.692.733v1.858l.093.093h2.974l.093-.093v-1.92c0-.199.512-.655.726-.698.283-.058 1.353-.053 1.66-.016.396.048.897.571.897.962V0c.623-.004 1.423.017 1.858-.495-1.692-.29-2.015-2.448-3.004-3.593H-2.54v2.57c0 .034.105.298.132.364C-1.995-.133-.998.05 0 0" clip-path="url(#f)" style="display:inline;fill:#eaeaea;fill-opacity:1;fill-rule:nonzero;stroke:none" transform="matrix(6.50622 0 0 -7.39793 22.993 21.712)"/><path d="m0 0-2.288 1.331 7.404 12.788c.704.938 2.584-.068 2.289-1.175Z" clip-path="url(#g)" style="display:inline;fill:#c1181b;fill-opacity:1;fill-rule:nonzero;stroke:none" transform="matrix(6.50622 0 0 -7.39793 145.102 139.942)"/><path d="m0 0-3.159-3.097v2.942c0 .021.082.094.062.155z" clip-path="url(#h)" style="display:inline;fill:#eaeaea;fill-opacity:1;fill-rule:nonzero;stroke:none" transform="matrix(6.50622 0 0 -7.39793 181.38 163.772)"/><use xlink:href="#i" clip-path="url(#a)" style="display:inline;fill:#9b9b9a;fill-opacity:1;fill-rule:nonzero;stroke:none" transform="matrix(6.50622 0 0 -7.39793 37.905 34.544)"/><use xlink:href="#i" clip-path="url(#j)" style="display:inline;fill:#9b9b9a;fill-opacity:1;fill-rule:nonzero;stroke:none" transform="matrix(6.50622 0 0 -7.39793 79.819 34.544)"/><use xlink:href="#i" clip-path="url(#k)" style="display:inline;fill:#9b9b9a;fill-opacity:1;fill-rule:nonzero;stroke:none" transform="matrix(6.50622 0 0 -7.39793 121.33 34.544)"/><use xlink:href="#i" clip-path="url(#l)" style="display:inline;fill:#9b9b9a;fill-opacity:1;fill-rule:nonzero;stroke:none" transform="matrix(6.50622 0 0 -7.39793 163.244 34.544)"/><path d="M0 0v1.858c.446-.273.977-.501 1.405-.794.059-.04.167-.065.143-.165Z" clip-path="url(#m)" style="display:inline;fill:#fff;fill-opacity:1;fill-rule:nonzero;stroke:none" transform="matrix(6.50622 0 0 -7.39793 128.988 151.857)"/></g></svg>