<svg xmlns="http://www.w3.org/2000/svg" xmlns:xlink="http://www.w3.org/1999/xlink" viewBox="0 0 200 200"><defs><path id="a" d="M0 340.157h340.157V0H0Z"/></defs><defs><clipPath id="f" clipPathUnits="userSpaceOnUse"><use xlink:href="#a" transform="translate(-155.362 -185.294)"/></clipPath><clipPath id="b" clipPathUnits="userSpaceOnUse"><use xlink:href="#a"/></clipPath><clipPath id="d" clipPathUnits="userSpaceOnUse"><use xlink:href="#a"/></clipPath><clipPath id="g" clipPathUnits="userSpaceOnUse"><use xlink:href="#a"/></clipPath><clipPath id="c" clipPathUnits="userSpaceOnUse"><use xlink:href="#a" transform="translate(-154.543 -181.1)"/></clipPath><clipPath id="e" clipPathUnits="userSpaceOnUse"><use xlink:href="#a"/></clipPath><clipPath id="h" clipPathUnits="userSpaceOnUse"><use xlink:href="#a"/></clipPath></defs><path d="m46.365 100.59 107.27.392 18.074 53.045-143.418 1.18z" style="fill:#fff"/><path d="M61.69 112.377h77.8l8.644 27.898-96.268.393z" style="fill:#9b9b9a"/><path d="M160.235 195.165h-5.692v-2.289l1.255-.236-.048-.97 3.303-.107-.024 1.03 1.206.236z" clip-path="url(#b)" style="fill:#c1181b;fill-opacity:1;fill-rule:nonzero;stroke:none" transform="matrix(5.43284 0 0 -8.3041 -754.737 1657.798)"/><path d="m-.483-1.02 3.678-1.082L6.435-.8l-.301 4.293-2.697-1.609L0 3.171Z" clip-path="url(#c)" style="fill:#c1181b;fill-opacity:1;fill-rule:nonzero;stroke:none" transform="matrix(4.88059 0 0 -5.78102 85.657 118.045)"/><path d="M167.824 196.739h-.956v-11.331h.956z" clip-path="url(#d)" style="fill:#9b9b9a;fill-opacity:1;fill-rule:nonzero;stroke:none" transform="matrix(4.88059 0 0 -5.78102 -667.819 1168.132)"/><path d="M147.911 196.739h-.956v-11.331h.956z" clip-path="url(#e)" style="fill:#9b9b9a;fill-opacity:1;fill-rule:nonzero;stroke:none" transform="matrix(4.88059 0 0 -5.78102 -667.819 1168.132)"/><path d="m0 0 2.22-.884 1.903.857-2.09.884z" clip-path="url(#f)" style="fill:#c6c4c5;fill-opacity:1;fill-rule:nonzero;stroke:none" transform="matrix(4.88059 0 0 -5.78102 90.439 96.943)"/><path d="M142.954 172.792h28.733v2.018h-28.733z" clip-path="url(#g)" style="fill:#9b9b9a;fill-opacity:1;fill-rule:nonzero;stroke:none" transform="matrix(4.88059 0 0 -5.78102 -667.819 1168.132)"/><path d="M171.688 172.792h-28.733v2.018h28.733zm-25.034 11.41h6.889v-1.206h-4.335a.501.501 0 0 1-.463-.31l-2.014-4.897a.5.5 0 0 1 .462-.691h20.352a.498.498 0 0 1 .462.69l-2.014 4.898a.5.5 0 0 1-.462.31h-4.296v1.206h6.754l3.453-8.393h-28.241zm.301 12.537h.956v-11.331h-.956zm10.139-13.211v-3.443l-2.551 1.015v3.444zm3.141.98v-3.424l-2.141-.963v3.423zm-2.653-.098-2.22.884 2.033.857 2.09-.884zm-3.724-4.113 3.54-1.409.002-.001.009-.003a.491.491 0 0 1 .39.008l3.141 1.413a.5.5 0 0 1 .295.456v1.235h3.961l1.603-3.898h-18.86l1.604 3.898h4v-1.235c0-.205.125-.389.315-.464m-4.947 13.404h4.632v-1.373a.5.5 0 0 1 .5-.5h.944v-1.392a.5.5 0 0 1 .5-.5h1.402v-1.549a.5.5 0 0 1 1 0v1.549h1.402a.5.5 0 0 1 .5.5v1.392h.944a.5.5 0 0 1 .5.5v1.373h4.633v-8.499h-4.633v.079l-.001.003.001.003c0 .009-.007.017-.008.026a.504.504 0 0 1-.07.226c-.016.026-.04.042-.061.065-.029.033-.051.072-.089.097-.015.009-.032.008-.047.016-.012.006-.018.019-.03.025l-3.339 1.413a.516.516 0 0 1-.39 0l-3.352-1.413c-.014-.006-.02-.021-.033-.028-.017-.009-.037-.008-.054-.019-.037-.026-.059-.065-.088-.099-.018-.021-.04-.037-.055-.061a.493.493 0 0 1-.076-.254v-.079h-4.632zm9.88-2.765h-2.804v.892h2.804zm-4.248 4.229h5.692v-2.336h-5.692zm12.325 1.574h.956v-11.331h-.956zm5.782-21.239-.001.004-.001.001-3.838 9.331c.004.025.014.046.014.072v12.331a.5.5 0 0 1-.5.5h-1.956a.5.5 0 0 1-.5-.5v-2.538h-4.633v.964a.5.5 0 0 1-.5.5h-6.692a.5.5 0 0 1-.5-.5v-.964h-4.632v2.538a.5.5 0 0 1-.5.5h-1.956a.5.5 0 0 1-.5-.5v-12.226c-.034-.039-.078-.07-.098-.12l-3.863-9.388-.001-.001-.001-.004c-.002-.005 0-.01-.002-.014a.499.499 0 0 1-.036-.177v-3.017a.5.5 0 0 1 .5-.5h29.734a.5.5 0 0 1 .5.5v3.017a.499.499 0 0 1-.036.177c-.002.004 0 .009-.002.014" clip-path="url(#h)" style="fill:#1d1d1b;fill-opacity:1;fill-rule:nonzero;stroke:none" transform="matrix(4.88059 0 0 -5.78102 -667.819 1168.132)"/></svg>