<svg xmlns="http://www.w3.org/2000/svg" xmlns:xlink="http://www.w3.org/1999/xlink" viewBox="0 0 200 200"><defs><path id="a" d="M0 340.157h340.157V0H0Z"/></defs><defs><clipPath id="d" clipPathUnits="userSpaceOnUse"><use xlink:href="#a" transform="translate(-171.256 -174.075)"/></clipPath><clipPath id="c" clipPathUnits="userSpaceOnUse"><use xlink:href="#a" transform="translate(-150.784 -184.087)"/></clipPath><clipPath id="b" clipPathUnits="userSpaceOnUse"><use xlink:href="#a" transform="translate(-165.168 -197.528)"/></clipPath><clipPath id="e" clipPathUnits="userSpaceOnUse"><use xlink:href="#a" transform="translate(-148.166 -184.087)"/></clipPath><clipPath id="f" clipPathUnits="userSpaceOnUse"><use xlink:href="#a" transform="translate(-150.784 -184.087)"/></clipPath><clipPath id="g" clipPathUnits="userSpaceOnUse"><use xlink:href="#a" transform="translate(-145.548 -184.088)"/></clipPath></defs><g style="display:inline"><path d="M103.34 256.335h111.1v17.092h-111.1Z" style="display:inline;fill:#c6c4c5;stroke-width:.750001" transform="translate(-58.596 -187.13)"/><path d="M87.132 314.685H230.06v20.628H87.132Z" style="display:inline;fill:#c6c4c5;stroke-width:2.14411" transform="translate(-58.596 -187.13)"/><path d="m.299.294-.06-28.572-16.793-.059-.06 24.708 4.301 3.864z" clip-path="url(#b)" style="display:inline;fill:#fff;fill-opacity:1;fill-rule:nonzero;stroke:none" transform="matrix(4.93043 0 0 -5.0143 140.222 29.928)"/><path d="m-4.927 5.824-.18-4.019H17.92l-.24 3.784 1.848-.328 1.668-1.915-.305-11.769-3.154.176-.06 2.515-22.622.045-.098-2.795-3.334-.058-.12 11.96 1.31 1.69" clip-path="url(#c)" style="display:inline;fill:#c1181b;fill-opacity:1;fill-rule:nonzero;stroke:none" transform="matrix(4.93043 0 0 -5.0143 69.3 97.325)"/><path d="M0 0c-.037.185.094.84-.1.903l-3.095.01c-.082-.006-.336.25-.336.272v2.309l-.091.091h-1.4l-.092-.091V0Zm-6.088 3.585h-16.315v-8.081h16.315ZM-23.377 0v3.494l-.091.091h-1.4l-.092-.091V1.185c0-.022-.253-.278-.336-.272l-3.095-.01c-.194-.063-.062-.718-.1-.903Zm-2.739 15.19c-.871-.096-1.713-.751-2.082-1.538-.083-.177-.293-.817-.293-.984V1.884h2.557v2.278c0 .134.396.465.576.398h22.226c.179.067.575-.264.575-.398V1.884H0v10.784c0 .167-.21.807-.293.984-.368.787-1.211 1.442-2.081 1.538v-3.372c0-.176-.443-.451-.637-.398h-22.408c-.209-.067-.697.198-.697.398zm22.768.06h-1.766v-2.764l.092-.091h1.582l.092.091zm-20.029 0h-1.765v-2.764l.091-.091h1.583l.091.091zm17.289 8.203h-11.993v-3.919c0-.18-.227-.369-.46-.363h-2.793c-.626.097-.398.94-.064.94h2.343v2.613l-3.348-3.312v-7.017h16.315zm.974-24.486v-4.101c0-.139-.348-.392-.514-.337h-17.234c-.166-.055-.515.198-.515.337v4.101h-5.57c-.142 0-.416.171-.471.32l-.039 13.434c-.022 1.466 1.788 3.502 3.249 3.502h2.74l.091.091v3.524l4.443 4.436.227.138 13.079.016c.166.055.514-.198.514-.337v-7.777l.092-.091h2.739c1.469 0 3.266-2.033 3.249-3.502L.928-.713c-.055-.149-.329-.32-.471-.32Z" clip-path="url(#d)" style="fill:#1d1d1b;fill-opacity:1;fill-rule:nonzero;stroke:none" transform="matrix(4.93043 0 0 -5.0143 170.237 147.528)"/><path d="M0 0c.165.038 1.033.039 1.173-.019.297-.123.341-.605.084-.81C1.024-1.014.202-1.011-.06-.884c-.37.18-.321.796.06.884" clip-path="url(#e)" style="fill:#1d1d1b;fill-opacity:1;fill-rule:nonzero;stroke:none" transform="matrix(4.93043 0 0 -5.0143 56.393 97.325)"/><path d="M0 0c.158.035.99.042 1.131.001.42-.123.349-.842-.122-.947C.796-.994.184-.981-.017-.903-.44-.738-.437-.097 0 0" clip-path="url(#f)" style="fill:#1d1d1b;fill-opacity:1;fill-rule:nonzero;stroke:none" transform="matrix(4.93043 0 0 -5.0143 69.3 97.325)"/><path d="M0 0c.139.04 1.046.034 1.173-.019.297-.123.342-.606.084-.811-.263-.209-1.334-.224-1.499.128C-.356-.458-.271-.079 0 0" clip-path="url(#g)" style="fill:#1d1d1b;fill-opacity:1;fill-rule:nonzero;stroke:none" transform="matrix(4.93043 0 0 -5.0143 43.484 97.322)"/></g></svg>