<svg xmlns="http://www.w3.org/2000/svg" xmlns:xlink="http://www.w3.org/1999/xlink" viewBox="0 0 200 200"><defs><path id="e" d="M0 340.157h340.157V0H0Z"/><path id="h" d="m0 0-7.399-.013c-.488-.163-.417-.851.1-.895H0A.455.455 0 0 1 0 0" clip-path="url(#c)" style="fill:#1d1d1b;fill-opacity:1;fill-rule:nonzero;stroke:none"/><path id="i" d="m0 0-7.399-.013c-.488-.163-.417-.851.1-.894H0A.454.454 0 0 1 0 0" clip-path="url(#d)" style="fill:#1d1d1b;fill-opacity:1;fill-rule:nonzero;stroke:none"/></defs><defs><clipPath id="g" clipPathUnits="userSpaceOnUse"><use xlink:href="#e" transform="translate(-98.214 -184.258)"/></clipPath><clipPath id="a" clipPathUnits="userSpaceOnUse"><use xlink:href="#e" transform="translate(-80.566 -192.404)"/></clipPath><clipPath id="b" clipPathUnits="userSpaceOnUse"><use xlink:href="#e" transform="translate(-74.683 -184.937)"/></clipPath><clipPath id="c" clipPathUnits="userSpaceOnUse"><use xlink:href="#e" transform="translate(-83.31 -180.187)"/></clipPath><clipPath id="d" clipPathUnits="userSpaceOnUse"><use xlink:href="#e" transform="translate(-83.31 -178.377)"/></clipPath><clipPath id="j" clipPathUnits="userSpaceOnUse"><use xlink:href="#e" transform="translate(-83.31 -176.567)"/></clipPath><clipPath id="k" clipPathUnits="userSpaceOnUse"><use xlink:href="#e" transform="translate(-83.31 -174.756)"/></clipPath><clipPath id="l" clipPathUnits="userSpaceOnUse"><use xlink:href="#e" transform="translate(-83.31 -172.947)"/></clipPath><clipPath id="m" clipPathUnits="userSpaceOnUse"><use xlink:href="#e" transform="translate(-78.674 -181.094)"/></clipPath><clipPath id="f" clipPathUnits="userSpaceOnUse"><use xlink:href="#e" transform="translate(-91.945 -192.044)"/></clipPath></defs><path d="M48.33 55.01h123.183l1.326 43.713-4.568-.295-1.67 45.187-118.27.196z" style="fill:#c1181b"/><path d="M43.222 87.623H87.23v10.02l9.627.294v74.165l-58.94-.196-1.571-10.61-8.546.295 1.277-61.002z" style="fill:#fff;stroke-width:2.07143"/><path d="M106.09 89.98h8.055v22.987h-8.055zM66.405 45.972h7.465v7.663h-7.465zM146.169 45.383h8.251v7.27h-8.251z" style="fill:#9b9b9a"/><path d="M0 0v3.134c0 .944-.765 1.709-1.709 1.709h-5.766a1.709 1.709 0 0 1-1.709-1.709V0H-7.8v2.914c0 .278.225.502.502.502h5.412a.502.502 0 0 0 .503-.502V0Z" clip-path="url(#f)" style="fill:#9c9a9a;fill-opacity:1;fill-rule:nonzero;stroke:#1d1d1b;stroke-width:.762;stroke-linecap:butt;stroke-linejoin:miter;stroke-miterlimit:10;stroke-dasharray:none;stroke-opacity:1" transform="matrix(5.5222 0 0 -5.54547 135.374 53.407)"/><path d="M0 0h-9.503v1.103c0 .142-.271.48-.399.563-.312.203-1.473.209-1.807.06-.18-.08-.509-.435-.509-.623V0l-.447.006c.021.146-.189.447-.317.447h-1.499v1.498c0 .067-.245.312-.311.312h-6.929v4.666c0 .13.324.365.478.314H-.478c.154.051.478-.184.478-.314Zm-11.313.905h.905V0h-.905zm.905-3.62h-.905v1.81h.905zm9.503-5.119c0-.067-.245-.311-.311-.311h-11.455v7.24h.453v-2.008c0-.142.271-.48.399-.563.312-.203 1.473-.209 1.807-.06.18.08.509.435.509.623v2.008h8.598zm-12.671-5.289h-9.955v9.955h2.404c.066 0 .311.245.311.311v2.404h7.24zm-10.86 10.549v-8.739h-.905v9.955h2.036zm.905 3.253V-.453h-1.131zm1.81-1.81v-1.132h-1.131zm-.905 2.489h7.24V.453h-6.024l-1.216-1.132zm4.978 6.787h-.905c-.218 1.227 1.122 1.228.905 0m14.48 0h-.905c-.217 1.227 1.123 1.228.905 0m.905 0c.274 2.407-2.986 2.398-2.715 0h-11.765c.274 2.405-2.986 2.4-2.715 0-.953-.102-2.216.334-2.884-.538-.075-.099-.284-.47-.284-.565V2.263c-.256-.019-.553.072-.764-.113-.933-.985-1.986-1.883-2.844-2.926l-.015-10.964c-.051-.154.184-.478.314-.478h1.499v-1.499c0-.13.324-.365.478-.314l10.864.002c.139-.034.423.205.423.312v4.667h11.568c.072 0 .452.188.539.253.181.135.564.635.564.85v7.042c.367-.002.81-.088.902.371l.005 7.409c-.239 1.682-1.941 1.212-3.17 1.27" clip-path="url(#g)" style="fill:#1d1d1b;fill-opacity:1;fill-rule:nonzero;stroke:none" transform="matrix(5.5222 0 0 -5.54547 169.991 96.582)"/><use xlink:href="#h" clip-path="url(#c)" style="fill:#1d1d1b;fill-opacity:1;fill-rule:nonzero;stroke:none" transform="matrix(5.5222 0 0 -5.54547 87.69 119.16)"/><use xlink:href="#i" clip-path="url(#d)" style="fill:#1d1d1b;fill-opacity:1;fill-rule:nonzero;stroke:none" transform="matrix(5.5222 0 0 -5.54547 87.69 129.198)"/><use xlink:href="#h" clip-path="url(#j)" style="fill:#1d1d1b;fill-opacity:1;fill-rule:nonzero;stroke:none" transform="matrix(5.5222 0 0 -5.54547 87.69 139.235)"/><use xlink:href="#i" clip-path="url(#k)" style="fill:#1d1d1b;fill-opacity:1;fill-rule:nonzero;stroke:none" transform="matrix(5.5222 0 0 -5.54547 87.69 149.273)"/><path d="m0 0-7.399-.013c-.488-.164-.417-.851.1-.895H0A.455.455 0 0 1 0 0" clip-path="url(#l)" style="fill:#1d1d1b;fill-opacity:1;fill-rule:nonzero;stroke:none" transform="matrix(5.5222 0 0 -5.54547 87.69 159.31)"/><path d="M0 0s4.63-.002 4.636-.005c.574.067.554.825.052.903L-.048.89C-.507.755-.477.075 0 0" clip-path="url(#m)" style="fill:#1d1d1b;fill-opacity:1;fill-rule:nonzero;stroke:none" transform="matrix(5.5222 0 0 -5.54547 62.088 114.13)"/></svg>