<svg xmlns="http://www.w3.org/2000/svg" xmlns:xlink="http://www.w3.org/1999/xlink" viewBox="0 0 200 200"><defs><path id="d" d="M0 340.157h340.157V0H0Z"/><path id="j" d="M0 0h-.905C-1.123 1.226.217 1.228 0 0" clip-path="url(#a)" style="fill:#9b9b9a;fill-opacity:1;fill-rule:nonzero;stroke:none"/><path id="l" d="m0 0 7.399.013a.454.454 0 0 0 0-.907H.1C-.417-.85-.488-.163 0 0" clip-path="url(#c)" style="fill:#1d1d1b;fill-opacity:1;fill-rule:nonzero;stroke:none"/></defs><defs><clipPath id="f" clipPathUnits="userSpaceOnUse"><use xlink:href="#d" transform="translate(-74.909 -182.742)"/></clipPath><clipPath id="e" clipPathUnits="userSpaceOnUse"><use xlink:href="#d" transform="translate(-98.214 -184.1)"/></clipPath><clipPath id="g" clipPathUnits="userSpaceOnUse"><use xlink:href="#d" transform="translate(-91.426 -192.244)"/></clipPath><clipPath id="h" clipPathUnits="userSpaceOnUse"><use xlink:href="#d"/></clipPath><clipPath id="i" clipPathUnits="userSpaceOnUse"><use xlink:href="#d"/></clipPath><clipPath id="a" clipPathUnits="userSpaceOnUse"><use xlink:href="#d" transform="translate(-80.566 -192.244)"/></clipPath><clipPath id="k" clipPathUnits="userSpaceOnUse"><use xlink:href="#d" transform="translate(-95.046 -192.244)"/></clipPath><clipPath id="b" clipPathUnits="userSpaceOnUse"><use xlink:href="#d" transform="translate(-74.683 -183.647)"/></clipPath><clipPath id="c" clipPathUnits="userSpaceOnUse"><use xlink:href="#d" transform="translate(-75.911 -180.014)"/></clipPath><clipPath id="m" clipPathUnits="userSpaceOnUse"><use xlink:href="#d" transform="translate(-75.911 -178.204)"/></clipPath><clipPath id="n" clipPathUnits="userSpaceOnUse"><use xlink:href="#d" transform="translate(-75.911 -176.394)"/></clipPath><clipPath id="o" clipPathUnits="userSpaceOnUse"><use xlink:href="#d" transform="translate(-75.911 -174.584)"/></clipPath><clipPath id="p" clipPathUnits="userSpaceOnUse"><use xlink:href="#d" transform="translate(-75.911 -172.774)"/></clipPath></defs><g style="display:inline" transform="matrix(.75 0 0 .75 0 0)"><path d="M-34.2-25.794V-9.52h22.002l-.403-16.022Z" clip-path="url(#e)" style="display:inline;fill:#c1181b;fill-opacity:1;fill-rule:nonzero;stroke:none" transform="matrix(7.36292 0 0 -7.35212 317.813 3.342)"/><path d="m58.48 117.158 58.154.524 1.048 13.228 12.05 1.18v97.707H51.145l.262-15.586-13.36-.393.786-76.359z" style="display:inline;fill:#fff;stroke-width:1.65769;fill-opacity:1"/><path d="M0 0h-2.036v-9.956h.905v8.74zm1.584-.905V.226L.453-.905ZM12.897.453h-.905v-1.81h.905zm-1.81 0h-.453v-7.241h11.455c.066 0 .311.245.311.311v6.93h-8.598v-2.009c0-.187-.329-.542-.509-.622-.334-.15-1.495-.144-1.808.06-.127.083-.398.421-.398.562zM9.729.905h-7.24v-2.404c0-.066-.245-.311-.311-.311H-.226v-9.956h9.955zm-9.955 0v1.131L-1.358.905Zm13.123 1.358h-.905v-.905h.905zm-4.978.452H.679V.679L1.895 1.81h6.024Zm15.386-1.357v6.929c0 .129-.324.365-.478.314H2.062c-.154.051-.478-.185-.478-.314V3.62h6.929c.066 0 .311-.244.311-.311V1.81h1.499c.128 0 .338-.301.317-.446l.447-.006v1.103c0 .187.329.542.508.622.335.15 1.496.144 1.808-.059.128-.083.399-.422.399-.563V1.358Zm-3.168 8.145c.218 1.227-1.122 1.226-.905 0zm-14.48 0c.217 1.227-1.123 1.226-.906 0zm9.503 2.715H9.73V9.503h5.43zm1.357-2.715v2.97c0 .41-.73 1.092-1.164 1.098-1.836-.099-3.838.148-5.654.007-.48-.037-.887-.257-1.138-.673a3.396 3.396 0 0 1-.189-.432v-2.97h.452v2.913c0 .257.483.71.769.702 1.803-.092 3.755.14 5.541.008.326-.025.599-.112.787-.401.029-.045.144-.285.144-.309V9.503Zm.905 0h.905c-.271 2.397 2.989 2.407 2.715 0 1.229-.058 2.93.412 3.17-1.27L24.207.824c-.092-.459-.535-.374-.902-.371V-6.59c0-.215-.384-.715-.564-.85-.087-.064-.467-.253-.539-.253H10.634v-4.667c0-.107-.284-.345-.423-.312l-10.864-.001c-.154-.051-.478.184-.478.313v1.499H-2.63c-.13 0-.365.324-.314.479L-2.929.582c.858 1.043 1.911 1.94 2.844 2.925.211.186.508.094.764.113V8.4c0 .094.209.466.284.564.668.873 1.931.436 2.884.539-.271 2.4 2.989 2.404 2.715 0h.905v3.026c0 .898 1.214 1.982 2.119 1.954 1.849-.102 3.828.128 5.661 0 .952-.066 2.175-.928 2.175-1.954z" clip-path="url(#f)" style="fill:#1d1d1b;fill-opacity:1;fill-rule:nonzero;stroke:none" transform="matrix(7.36292 0 0 -7.35212 55.062 140.107)"/><path d="M0 0h-.453v2.913c0 .024-.115.264-.143.309-.188.289-.461.376-.787.401-1.786.132-3.738-.1-5.541-.008-.286.008-.769-.445-.769-.702V0h-.452v2.97c0 .033.153.371.189.432.251.416.658.636 1.137.673 1.817.141 3.819-.106 5.655-.007C-.73 4.062 0 3.38 0 2.97Z" clip-path="url(#g)" style="fill:#9b9b9a;fill-opacity:1;fill-rule:nonzero;stroke:none" transform="matrix(7.36292 0 0 -7.35212 176.676 70.24)"/><path d="M87.806 181.384h-.905v1.81h.905z" clip-path="url(#h)" style="fill:#9b9b9a;fill-opacity:1;fill-rule:nonzero;stroke:none" transform="matrix(7.36292 0 0 -7.35212 -496.487 1483.646)"/><path d="M87.806 184.099h-.905v.905h.905z" clip-path="url(#i)" style="fill:#9b9b9a;fill-opacity:1;fill-rule:nonzero;stroke:none" transform="matrix(7.36292 0 0 -7.35212 -496.487 1483.646)"/><use xlink:href="#j" clip-path="url(#a)" style="fill:#9b9b9a;fill-opacity:1;fill-rule:nonzero;stroke:none" transform="matrix(7.36292 0 0 -7.35212 96.711 70.24)"/><use xlink:href="#j" clip-path="url(#k)" style="fill:#9b9b9a;fill-opacity:1;fill-rule:nonzero;stroke:none" transform="matrix(7.36292 0 0 -7.35212 203.331 70.24)"/><use xlink:href="#l" clip-path="url(#c)" style="fill:#1d1d1b;fill-opacity:1;fill-rule:nonzero;stroke:none" transform="matrix(7.36292 0 0 -7.35212 62.44 160.158)"/><use xlink:href="#l" clip-path="url(#m)" style="fill:#1d1d1b;fill-opacity:1;fill-rule:nonzero;stroke:none" transform="matrix(7.36292 0 0 -7.35212 62.44 173.466)"/><use xlink:href="#l" clip-path="url(#n)" style="fill:#1d1d1b;fill-opacity:1;fill-rule:nonzero;stroke:none" transform="matrix(7.36292 0 0 -7.35212 62.44 186.774)"/><use xlink:href="#l" clip-path="url(#o)" style="fill:#1d1d1b;fill-opacity:1;fill-rule:nonzero;stroke:none" transform="matrix(7.36292 0 0 -7.35212 62.44 200.083)"/><use xlink:href="#l" clip-path="url(#p)" style="fill:#1d1d1b;fill-opacity:1;fill-rule:nonzero;stroke:none;image-rendering:auto" transform="matrix(7.36292 0 0 -7.35212 62.44 213.39)"/><use xlink:href="#l" clip-path="url(#m)" style="fill:#1d1d1b;fill-opacity:1;fill-rule:nonzero;stroke:none" transform="matrix(4.73098 0 0 -7.35212 82.529 146.747)"/></g></svg>